<?xml version="1.0" encoding="iso-8859-1"?>
<!-- Generator: Adobe Illustrator 16.0.0, SVG Export Plug-In . SVG Version: 6.00 Build 0)  -->
<!DOCTYPE svg PUBLIC "-//W3C//DTD SVG 1.1//EN" "http://www.w3.org/Graphics/SVG/1.1/DTD/svg11.dtd">
<svg xmlns="http://www.w3.org/2000/svg" xmlns:xlink="http://www.w3.org/1999/xlink" version="1.1" id="Capa_1" x="0px" y="0px" width="512px" height="512px" viewBox="0 0 32.102 32.102" style="enable-background:new 0 0 32.102 32.102;" xml:space="preserve">
<g>
	<g>
		<path d="M5.86,13.411c0.289,2.332,1.523,5.229,2.722,6.751c0.008-0.004,0.017-0.009,0.026-0.013    c0.463,0.587,1.31,0.717,1.932,0.281c0.263-0.185,3.152-2.408,4.543-3.5c1.17,0.058,5.055,0.226,6.87,0.303    c0.525,0.021,0.969-0.385,0.992-0.909l0.042-0.94c0.011-0.253-0.078-0.499-0.249-0.685c-0.17-0.187-0.408-0.298-0.662-0.309    c-1.844-0.08-5.821-0.253-6.912-0.306c-1.176-0.059-2.489,0.48-3.462,1.826c-0.193-0.391-0.243-1.514-0.378-2.692    c2.637-1.563,2.674-3.343,2.395-4.738c-0.167-0.843-0.762-1.635-1.378-2.262c0.017,0.91-0.318,1.809-0.978,2.493    c0.039,0.08,0.068,0.154,0.082,0.223c0.112,0.56,0.226,1.136-0.655,1.849c-0.004-0.011-0.009-0.02-0.014-0.032    C10.475,9.981,9.803,9.377,8.933,9.2C7.916,8.995,7.004,9.457,6.43,10.256c-0.942-0.85-1.613-1.635-1.71-2.068    C4.937,8.08,5.36,8.051,5.837,8.074C5.325,7.215,5.208,6.209,5.478,5.292C4.47,5.313,3.472,5.536,2.786,6.164    c-0.621,0.569-0.923,1.341-0.852,2.17C2.09,10.166,4.187,12.125,5.86,13.411z" fill="#FFFFFF"/>
		<circle cx="8.843" cy="6.284" r="2.627" fill="#FFFFFF"/>
		<path d="M15.244,21.767l0.803-0.446l-1.381-2.491l-5.788,3.209L2.671,10.84c-0.381-0.688-1.248-0.935-1.936-0.555    c-0.688,0.383-0.938,1.249-0.557,1.938l6.9,12.448c0.357,0.643,1.136,0.896,1.798,0.617c0.002,0.003,0.005,0.004,0.007,0.004    l0.447-0.247l1.612,2.908c0.254,0.459,0.826,0.627,1.284,0.373c0.457-0.254,0.617-0.827,0.363-1.287l-1.612-2.907l2.619-1.453    l1.613,2.91c0.254,0.459,0.826,0.627,1.284,0.372c0.458-0.254,0.619-0.827,0.364-1.286L15.244,21.767z" fill="#FFFFFF"/>
		<path d="M31.167,17.753c-0.217-1.121-0.943-2.064-1.902-2.58v-0.895h1.351V8.013l-5.184-1.852V5.263h-1.873v9.494h1.873v-0.479    h0.958v0.644c-1.264,0.407-2.241,1.491-2.503,2.842h-6.021c-0.524,0-0.949,0.434-0.949,0.957c0,0.525,0.425,0.959,0.949,0.959    h1.904v8.537h10.454v-8.537h0.926c0.523,0,0.953-0.438,0.953-0.963C32.102,18.195,31.687,17.759,31.167,17.753z" fill="#FFFFFF"/>
	</g>
</g>
<g>
</g>
<g>
</g>
<g>
</g>
<g>
</g>
<g>
</g>
<g>
</g>
<g>
</g>
<g>
</g>
<g>
</g>
<g>
</g>
<g>
</g>
<g>
</g>
<g>
</g>
<g>
</g>
<g>
</g>
</svg>
