<?xml version="1.0" encoding="utf-8"?>
<!-- Generator: Adobe Illustrator 16.0.0, SVG Export Plug-In . SVG Version: 6.00 Build 0)  -->
<!DOCTYPE svg PUBLIC "-//W3C//DTD SVG 1.1//EN" "http://www.w3.org/Graphics/SVG/1.1/DTD/svg11.dtd">
<svg xmlns="http://www.w3.org/2000/svg" xmlns:xlink="http://www.w3.org/1999/xlink" version="1.1" id="Layer_1" x="0px" y="0px" width="512px" height="512px" viewBox="0 0 128 128" enable-background="new 0 0 128 128" xml:space="preserve">
<path d="M64,24C30.863,24,4,50.863,4,84c0,7.023,1.27,13.734,3.488,20h113.023C122.73,97.734,124,91.023,124,84  C124,50.863,97.137,24,64,24z M52.93,96c1.656-4.621,5.875-8,11.07-8s9.414,3.379,11.07,8H52.93z M83.453,96l-0.941-3.5  l23.43-33.715L72.57,82.008c0.098,0.047,0.18,0.117,0.273,0.164C70.172,80.828,67.195,80,64,80c-9.641,0-17.594,6.898-19.453,16  H13.445c-0.641-2.648-0.99-5.324-1.205-8H24c2.211,0,4-1.789,4-4s-1.789-4-4-4H12.203c0.869-11.328,5.363-21.645,12.352-29.789  l8.332,8.332c1.563,1.566,4.094,1.566,5.656,0c1.566-1.563,1.566-4.094,0-5.656l-8.332-8.332C38.355,37.566,48.672,33.072,60,32.203  V44c0,2.211,1.789,4,4,4s4-1.789,4-4V32.203c11.328,0.869,21.645,5.363,29.789,12.352l-8.332,8.332  c-1.566,1.563-1.566,4.094,0,5.656c1.563,1.566,4.094,1.566,5.656,0l8.332-8.332c6.988,8.145,11.484,18.461,12.352,29.789H104  c-2.211,0-4,1.789-4,4s1.789,4,4,4h11.758c-0.211,2.676-0.563,5.352-1.203,8H83.453z" fill="#FFFFFF"/>
</svg>
