<?xml version="1.0" encoding="iso-8859-1"?>
<!-- Generator: Adobe Illustrator 18.0.0, SVG Export Plug-In . SVG Version: 6.00 Build 0)  -->
<!DOCTYPE svg PUBLIC "-//W3C//DTD SVG 1.1//EN" "http://www.w3.org/Graphics/SVG/1.1/DTD/svg11.dtd">
<svg version="1.1" id="Capa_1" xmlns="http://www.w3.org/2000/svg" xmlns:xlink="http://www.w3.org/1999/xlink" x="0px" y="0px"
	 viewBox="0 0 452.373 452.373" style="enable-background:new 0 0 452.373 452.373;" xml:space="preserve">
<g>
	<g>
		<path style="fill:#73D0F4;" d="M263.961,303.663V266.65h-75.549v37.014c0,6.627-5.373,12-12,12h-10.033l59.809,43.821
			l59.807-43.821h-10.033C269.334,315.663,263.961,310.291,263.961,303.663z"/>
		<path style="fill:#3D6889;" d="M349.127,173.868c-1.223,0-2.447,0.022-3.674,0.066c-6.006-60.509-57.203-107.921-119.266-107.921
			s-113.26,47.413-119.268,107.921c-1.225-0.044-2.451-0.066-3.674-0.066C46.316,173.868,0,220.184,0,277.114
			c0,56.93,46.316,103.246,103.246,103.246c6.627,0,12-5.372,12-12c0-6.627-5.373-12-12-12C59.551,356.36,24,320.81,24,277.114
			s35.551-79.246,79.246-79.246c4.373,0,8.791,0.366,13.135,1.088c3.508,0.583,7.094-0.42,9.789-2.738
			c2.697-2.318,4.227-5.713,4.178-9.269l-0.008-0.433c-0.004-0.216-0.008-0.432-0.008-0.648c0-52.855,43-95.855,95.855-95.855
			s95.855,43,95.855,95.855c0,0.204-0.004,0.407-0.008,0.61l-0.006,0.5c-0.043,3.551,1.492,6.939,4.188,9.251
			c2.697,2.312,6.275,3.311,9.783,2.727c4.33-0.721,8.746-1.087,13.127-1.087c43.697,0,79.246,35.55,79.246,79.246
			s-35.549,79.246-79.246,79.246c-6.627,0-12,5.373-12,12c0,6.628,5.373,12,12,12c56.93,0,103.246-46.316,103.246-103.246
			C452.373,220.184,406.057,173.868,349.127,173.868z"/>
		<path style="fill:#3D6889;" d="M168.883,181.607c0-28.45,23.145-51.596,51.596-51.596c6.627,0,12-5.373,12-12s-5.373-12-12-12
			c-41.684,0-75.596,33.912-75.596,75.596c0,6.627,5.371,12,12,12C163.51,193.607,168.883,188.235,168.883,181.607z"/>
		<path style="fill:#3D6889;" d="M322.676,291.663h-34.715V254.65c0-6.628-5.373-12-12-12h-99.549c-6.627,0-12,5.372-12,12v37.014
			h-34.713c-5.191,0-9.793,3.336-11.406,8.269c-1.613,4.933,0.127,10.343,4.313,13.411l96.488,70.697
			c2.111,1.547,4.602,2.32,7.094,2.32c2.49,0,4.98-0.773,7.092-2.32l96.488-70.697c4.186-3.067,5.926-8.478,4.313-13.411
			C332.467,295,327.865,291.663,322.676,291.663z M226.188,359.484l-59.809-43.821h10.033c6.627,0,12-5.373,12-12V266.65h75.549
			v37.014c0,6.627,5.373,12,12,12h10.033L226.188,359.484z"/>
	</g>
</g>
<g>
</g>
<g>
</g>
<g>
</g>
<g>
</g>
<g>
</g>
<g>
</g>
<g>
</g>
<g>
</g>
<g>
</g>
<g>
</g>
<g>
</g>
<g>
</g>
<g>
</g>
<g>
</g>
<g>
</g>
</svg>
