<svg xmlns="http://www.w3.org/2000/svg" width="1920" height="1080"><path d="M627,1279L334,1298L837,1296Z" fill="#5b163b" stroke="#5b163b" stroke-width="1.51"/><path d="M112,1317L-173,1342L1035,1317Z" fill="#5d183d" stroke="#5d183d" stroke-width="1.51"/><path d="M837,1296L334,1298L1035,1317Z" fill="#5a153a" stroke="#5a153a" stroke-width="1.51"/><path d="M334,1298L112,1317L1035,1317Z" fill="#5c173c" stroke="#5c173c" stroke-width="1.51"/><path d="M844,-265L1301,-249L1471,-250Z" fill="#692047" stroke="#692047" stroke-width="1.51"/><path d="M1776,1277L1380,1315L1944,1273Z" fill="#521033" stroke="#521033" stroke-width="1.51"/><path d="M1752,-201L1902,-199L2045,-222Z" fill="#631c42" stroke="#631c42" stroke-width="1.51"/><path d="M1471,-250L1752,-201L2045,-222Z" fill="#641d43" stroke="#641d43" stroke-width="1.51"/><path d="M1944,1273L1380,1315L2067,1272Z" fill="#510f32" stroke="#510f32" stroke-width="1.51"/><path d="M2043,1151L2067,1272L2082,997Z" fill="#510f32" stroke="#510f32" stroke-width="1.51"/><path d="M2048,68L2089,241L2091,-75Z" fill="#5e183d" stroke="#5e183d" stroke-width="1.51"/><path d="M1947,508L2059,583L2125,386Z" fill="#591439" stroke="#591439" stroke-width="1.51"/><path d="M1919,437L1947,508L2125,386Z" fill="#5a153a" stroke="#5a153a" stroke-width="1.51"/><path d="M2091,-75L2089,241L2125,386Z" fill="#5c173c" stroke="#5c173c" stroke-width="1.51"/><path d="M1987,856L2082,997L2136,794Z" fill="#541134" stroke="#541134" stroke-width="1.51"/><path d="M2030,695L1987,856L2136,794Z" fill="#551236" stroke="#551236" stroke-width="1.51"/><path d="M2059,583L2030,695L2136,794Z" fill="#561336" stroke="#561336" stroke-width="1.51"/><path d="M2082,997L2067,1272L2136,794Z" fill="#521033" stroke="#521033" stroke-width="1.51"/><path d="M2125,386L2059,583L2136,794Z" fill="#571438" stroke="#571438" stroke-width="1.51"/><path d="M2089,241L1919,437L2125,386Z" fill="#5a163b" stroke="#5a163b" stroke-width="1.51"/><path d="M1954,742L1987,856L2030,695Z" fill="#561336" stroke="#561336" stroke-width="1.51"/><path d="M1921,1115L2043,1151L2082,997Z" fill="#511033" stroke="#511033" stroke-width="1.51"/><path d="M2048,68L1903,206L2089,241Z" fill="#5d183d" stroke="#5d183d" stroke-width="1.51"/><path d="M1903,206L1919,437L2089,241Z" fill="#5c173c" stroke="#5c173c" stroke-width="1.51"/><path d="M2045,-222L1902,-199L2091,-75Z" fill="#611b40" stroke="#611b40" stroke-width="1.51"/><path d="M1902,-199L1898,-13L2091,-75Z" fill="#611a40" stroke="#611a40" stroke-width="1.51"/><path d="M1898,-13L2048,68L2091,-75Z" fill="#60193f" stroke="#60193f" stroke-width="1.51"/><path d="M1987,856L1886,952L2082,997Z" fill="#541135" stroke="#541135" stroke-width="1.51"/><path d="M1906,82L1903,206L2048,68Z" fill="#5e193e" stroke="#5e193e" stroke-width="1.51"/><path d="M2043,1151L1944,1273L2067,1272Z" fill="#4f0e31" stroke="#4f0e31" stroke-width="1.51"/><path d="M1886,952L1921,1115L2082,997Z" fill="#531034" stroke="#531034" stroke-width="1.51"/><path d="M1947,508L2030,695L2059,583Z" fill="#581438" stroke="#581438" stroke-width="1.51"/><path d="M1947,508L1954,742L2030,695Z" fill="#571438" stroke="#571438" stroke-width="1.51"/><path d="M1921,1115L1944,1273L2043,1151Z" fill="#510f32" stroke="#510f32" stroke-width="1.51"/><path d="M1898,-13L1906,82L2048,68Z" fill="#5f193f" stroke="#5f193f" stroke-width="1.51"/><path d="M1947,508L1806,594L1954,742Z" fill="#581439" stroke="#581439" stroke-width="1.51"/><path d="M1221,1297L1035,1317L1380,1315Z" fill="#551336" stroke="#551336" stroke-width="1.51"/><path d="M1521,1250L1380,1315L1776,1277Z" fill="#531134" stroke="#531134" stroke-width="1.51"/><path d="M1815,-74L1898,-13L1902,-199Z" fill="#621b41" stroke="#621b41" stroke-width="1.51"/><path d="M1903,206L1794,410L1919,437Z" fill="#5c173c" stroke="#5c173c" stroke-width="1.51"/><path d="M1954,742L1828,832L1987,856Z" fill="#561336" stroke="#561336" stroke-width="1.51"/><path d="M1828,832L1886,952L1987,856Z" fill="#551236" stroke="#551236" stroke-width="1.51"/><path d="M1921,1115L1833,1137L1944,1273Z" fill="#520f33" stroke="#520f33" stroke-width="1.51"/><path d="M1833,1137L1776,1277L1944,1273Z" fill="#511032" stroke="#511032" stroke-width="1.51"/><path d="M1749,706L1828,832L1954,742Z" fill="#571438" stroke="#571438" stroke-width="1.51"/><path d="M1806,594L1749,706L1954,742Z" fill="#581439" stroke="#581439" stroke-width="1.51"/><path d="M1817,185L1794,410L1903,206Z" fill="#5d183d" stroke="#5d183d" stroke-width="1.51"/><path d="M1886,952L1833,1137L1921,1115Z" fill="#531034" stroke="#531034" stroke-width="1.51"/><path d="M1919,437L1806,594L1947,508Z" fill="#5a153a" stroke="#5a153a" stroke-width="1.51"/><path d="M1751,1032L1833,1137L1886,952Z" fill="#541135" stroke="#541135" stroke-width="1.51"/><path d="M1817,185L1903,206L1906,82Z" fill="#5e193e" stroke="#5e193e" stroke-width="1.51"/><path d="M1812,108L1817,185L1906,82Z" fill="#5f193f" stroke="#5f193f" stroke-width="1.51"/><path d="M1794,410L1806,594L1919,437Z" fill="#5a163b" stroke="#5a163b" stroke-width="1.51"/><path d="M1898,-13L1812,108L1906,82Z" fill="#601a3f" stroke="#601a3f" stroke-width="1.51"/><path d="M1752,-201L1815,-74L1902,-199Z" fill="#631c42" stroke="#631c42" stroke-width="1.51"/><path d="M1815,-74L1812,108L1898,-13Z" fill="#601a40" stroke="#601a40" stroke-width="1.51"/><path d="M1579,1234L1521,1250L1776,1277Z" fill="#531134" stroke="#531134" stroke-width="1.51"/><path d="M1828,832L1751,1032L1886,952Z" fill="#551236" stroke="#551236" stroke-width="1.51"/><path d="M1794,410L1645,427L1806,594Z" fill="#5b173b" stroke="#5b173b" stroke-width="1.51"/><path d="M1631,-13L1630,63L1812,108Z" fill="#611b40" stroke="#611b40" stroke-width="1.51"/><path d="M1631,-13L1812,108L1815,-74Z" fill="#611b40" stroke="#611b40" stroke-width="1.51"/><path d="M1652,241L1794,410L1817,185Z" fill="#5e183d" stroke="#5e183d" stroke-width="1.51"/><path d="M1602,870L1751,1032L1828,832Z" fill="#561337" stroke="#561337" stroke-width="1.51"/><path d="M1651,1182L1776,1277L1833,1137Z" fill="#521033" stroke="#521033" stroke-width="1.51"/><path d="M1751,1032L1651,1182L1833,1137Z" fill="#531134" stroke="#531134" stroke-width="1.51"/><path d="M1645,427L1598,495L1806,594Z" fill="#5c173b" stroke="#5c173b" stroke-width="1.51"/><path d="M1749,706L1602,870L1828,832Z" fill="#571438" stroke="#571438" stroke-width="1.51"/><path d="M1652,241L1645,427L1794,410Z" fill="#5d183d" stroke="#5d183d" stroke-width="1.51"/><path d="M1630,63L1652,241L1812,108Z" fill="#601a3f" stroke="#601a3f" stroke-width="1.51"/><path d="M1752,-201L1617,-156L1815,-74Z" fill="#631c42" stroke="#631c42" stroke-width="1.51"/><path d="M1812,108L1652,241L1817,185Z" fill="#5f193f" stroke="#5f193f" stroke-width="1.51"/><path d="M1617,-156L1631,-13L1815,-74Z" fill="#631c42" stroke="#631c42" stroke-width="1.51"/><path d="M1471,-250L1617,-156L1752,-201Z" fill="#651e44" stroke="#651e44" stroke-width="1.51"/><path d="M1598,495L1749,706L1806,594Z" fill="#5a163a" stroke="#5a163a" stroke-width="1.51"/><path d="M1598,495L1578,696L1749,706Z" fill="#5a163a" stroke="#5a163a" stroke-width="1.51"/><path d="M1602,870L1591,1019L1751,1032Z" fill="#561336" stroke="#561336" stroke-width="1.51"/><path d="M1651,1182L1579,1234L1776,1277Z" fill="#521034" stroke="#521034" stroke-width="1.51"/><path d="M131,-244L559,-209L844,-265Z" fill="#70244c" stroke="#70244c" stroke-width="1.51"/><path d="M1578,696L1602,870L1749,706Z" fill="#591539" stroke="#591539" stroke-width="1.51"/><path d="M1591,1019L1651,1182L1751,1032Z" fill="#541235" stroke="#541235" stroke-width="1.51"/><path d="M1535,512L1578,696L1598,495Z" fill="#5c173c" stroke="#5c173c" stroke-width="1.51"/><path d="M1578,696L1529,816L1602,870Z" fill="#591539" stroke="#591539" stroke-width="1.51"/><path d="M1617,-156L1475,-69L1631,-13Z" fill="#641c42" stroke="#641c42" stroke-width="1.51"/><path d="M1591,1019L1496,1156L1651,1182Z" fill="#551235" stroke="#551235" stroke-width="1.51"/><path d="M1496,1156L1579,1234L1651,1182Z" fill="#541135" stroke="#541135" stroke-width="1.51"/><path d="M1630,63L1437,133L1652,241Z" fill="#611b40" stroke="#611b40" stroke-width="1.51"/><path d="M1437,133L1435,192L1652,241Z" fill="#611b40" stroke="#611b40" stroke-width="1.51"/><path d="M1446,417L1645,427L1652,241Z" fill="#5e193d" stroke="#5e193d" stroke-width="1.51"/><path d="M1435,192L1446,417L1652,241Z" fill="#601a3f" stroke="#601a3f" stroke-width="1.51"/><path d="M1446,417L1598,495L1645,427Z" fill="#5d183d" stroke="#5d183d" stroke-width="1.51"/><path d="M1446,417L1535,512L1598,495Z" fill="#5d183d" stroke="#5d183d" stroke-width="1.51"/><path d="M1475,-69L1437,133L1630,63Z" fill="#631c42" stroke="#631c42" stroke-width="1.51"/><path d="M1475,-69L1630,63L1631,-13Z" fill="#631c42" stroke="#631c42" stroke-width="1.51"/><path d="M1451,1000L1591,1019L1602,870Z" fill="#571437" stroke="#571437" stroke-width="1.51"/><path d="M1471,-250L1475,-69L1617,-156Z" fill="#661e44" stroke="#661e44" stroke-width="1.51"/><path d="M1535,512L1491,722L1578,696Z" fill="#5b173b" stroke="#5b173b" stroke-width="1.51"/><path d="M1491,722L1529,816L1578,696Z" fill="#5a163a" stroke="#5a163a" stroke-width="1.51"/><path d="M1451,1000L1496,1156L1591,1019Z" fill="#561336" stroke="#561336" stroke-width="1.51"/><path d="M1529,816L1451,1000L1602,870Z" fill="#581438" stroke="#581438" stroke-width="1.51"/><path d="M1496,1156L1521,1250L1579,1234Z" fill="#541235" stroke="#541235" stroke-width="1.51"/><path d="M1346,646L1491,722L1535,512Z" fill="#5c173c" stroke="#5c173c" stroke-width="1.51"/><path d="M1376,-36L1437,133L1475,-69Z" fill="#641d43" stroke="#641d43" stroke-width="1.51"/><path d="M1282,892L1451,1000L1529,816Z" fill="#591439" stroke="#591439" stroke-width="1.51"/><path d="M1446,417L1346,646L1535,512Z" fill="#5d183d" stroke="#5d183d" stroke-width="1.51"/><path d="M1289,486L1346,646L1446,417Z" fill="#5e193e" stroke="#5e193e" stroke-width="1.51"/><path d="M1491,722L1282,892L1529,816Z" fill="#5a153a" stroke="#5a153a" stroke-width="1.51"/><path d="M1435,192L1343,405L1446,417Z" fill="#601a3f" stroke="#601a3f" stroke-width="1.51"/><path d="M1496,1156L1380,1315L1521,1250Z" fill="#541235" stroke="#541235" stroke-width="1.51"/><path d="M1327,207L1343,405L1435,192Z" fill="#621b40" stroke="#621b40" stroke-width="1.51"/><path d="M1282,892L1336,994L1451,1000Z" fill="#591539" stroke="#591539" stroke-width="1.51"/><path d="M1301,-249L1376,-36L1471,-250Z" fill="#671e45" stroke="#671e45" stroke-width="1.51"/><path d="M1471,-250L1376,-36L1475,-69Z" fill="#661d44" stroke="#661d44" stroke-width="1.51"/><path d="M1346,646L1282,892L1491,722Z" fill="#5b163b" stroke="#5b163b" stroke-width="1.51"/><path d="M1451,1000L1293,1128L1496,1156Z" fill="#571337" stroke="#571337" stroke-width="1.51"/><path d="M1293,1128L1380,1315L1496,1156Z" fill="#551336" stroke="#551336" stroke-width="1.51"/><path d="M1336,994L1293,1128L1451,1000Z" fill="#581438" stroke="#581438" stroke-width="1.51"/><path d="M1343,405L1289,486L1446,417Z" fill="#5f193f" stroke="#5f193f" stroke-width="1.51"/><path d="M1376,-36L1280,93L1437,133Z" fill="#641d43" stroke="#641d43" stroke-width="1.51"/><path d="M1327,207L1435,192L1437,133Z" fill="#621b41" stroke="#621b41" stroke-width="1.51"/><path d="M1280,93L1327,207L1437,133Z" fill="#631c42" stroke="#631c42" stroke-width="1.51"/><path d="M844,-265L1134,-176L1301,-249Z" fill="#6a2048" stroke="#6a2048" stroke-width="1.51"/><path d="M1327,207L1212,243L1343,405Z" fill="#621b41" stroke="#621b41" stroke-width="1.51"/><path d="M1212,243L1206,369L1343,405Z" fill="#621b40" stroke="#621b40" stroke-width="1.51"/><path d="M1139,638L1282,892L1346,646Z" fill="#5d173c" stroke="#5d173c" stroke-width="1.51"/><path d="M1301,-249L1134,-176L1376,-36Z" fill="#681f46" stroke="#681f46" stroke-width="1.51"/><path d="M1134,-176L1152,-5L1376,-36Z" fill="#671e45" stroke="#671e45" stroke-width="1.51"/><path d="M1293,1128L1221,1297L1380,1315Z" fill="#561336" stroke="#561336" stroke-width="1.51"/><path d="M1289,486L1233,505L1346,646Z" fill="#5f193e" stroke="#5f193e" stroke-width="1.51"/><path d="M1152,-5L1280,93L1376,-36Z" fill="#651e44" stroke="#651e44" stroke-width="1.51"/><path d="M844,-265L1003,-174L1134,-176Z" fill="#6b2148" stroke="#6b2148" stroke-width="1.51"/><path d="M1139,638L1129,894L1282,892Z" fill="#5c173c" stroke="#5c173c" stroke-width="1.51"/><path d="M1192,1144L1221,1297L1293,1128Z" fill="#571337" stroke="#571337" stroke-width="1.51"/><path d="M1164,988L1293,1128L1336,994Z" fill="#581539" stroke="#581539" stroke-width="1.51"/><path d="M1233,505L1139,638L1346,646Z" fill="#5e193d" stroke="#5e193d" stroke-width="1.51"/><path d="M1206,369L1289,486L1343,405Z" fill="#601a3f" stroke="#601a3f" stroke-width="1.51"/><path d="M1280,93L1203,118L1327,207Z" fill="#641d42" stroke="#641d42" stroke-width="1.51"/><path d="M1282,892L1164,988L1336,994Z" fill="#59153a" stroke="#59153a" stroke-width="1.51"/><path d="M131,-244L423,-198L559,-209Z" fill="#70254d" stroke="#70254d" stroke-width="1.51"/><path d="M1203,118L1212,243L1327,207Z" fill="#641c42" stroke="#641c42" stroke-width="1.51"/><path d="M1206,369L1233,505L1289,486Z" fill="#601a3f" stroke="#601a3f" stroke-width="1.51"/><path d="M1164,988L1192,1144L1293,1128Z" fill="#581539" stroke="#581539" stroke-width="1.51"/><path d="M1152,-5L1203,118L1280,93Z" fill="#651d44" stroke="#651d44" stroke-width="1.51"/><path d="M1129,894L1164,988L1282,892Z" fill="#5b163a" stroke="#5b163a" stroke-width="1.51"/><path d="M1192,1144L1081,1161L1221,1297Z" fill="#571438" stroke="#571438" stroke-width="1.51"/><path d="M1067,578L1139,638L1233,505Z" fill="#5f193f" stroke="#5f193f" stroke-width="1.51"/><path d="M1206,369L999,444L1233,505Z" fill="#611a40" stroke="#611a40" stroke-width="1.51"/><path d="M999,444L1067,578L1233,505Z" fill="#601a3f" stroke="#601a3f" stroke-width="1.51"/><path d="M1022,884L1129,894L1139,638Z" fill="#5d183d" stroke="#5d183d" stroke-width="1.51"/><path d="M1004,227L1206,369L1212,243Z" fill="#631c42" stroke="#631c42" stroke-width="1.51"/><path d="M1203,118L1004,227L1212,243Z" fill="#641d43" stroke="#641d43" stroke-width="1.51"/><path d="M1081,1161L1035,1317L1221,1297Z" fill="#571437" stroke="#571437" stroke-width="1.51"/><path d="M1164,988L1081,1161L1192,1144Z" fill="#591539" stroke="#591539" stroke-width="1.51"/><path d="M1004,227L999,444L1206,369Z" fill="#631c42" stroke="#631c42" stroke-width="1.51"/><path d="M999,635L1022,884L1139,638Z" fill="#5e193e" stroke="#5e193e" stroke-width="1.51"/><path d="M1152,-5L980,48L1203,118Z" fill="#661e44" stroke="#661e44" stroke-width="1.51"/><path d="M980,48L1004,227L1203,118Z" fill="#661e44" stroke="#661e44" stroke-width="1.51"/><path d="M1134,-176L1009,-102L1152,-5Z" fill="#682047" stroke="#682047" stroke-width="1.51"/><path d="M1129,894L1068,935L1164,988Z" fill="#5b173b" stroke="#5b173b" stroke-width="1.51"/><path d="M1068,935L1081,1161L1164,988Z" fill="#5a163a" stroke="#5a163a" stroke-width="1.51"/><path d="M1009,-102L980,48L1152,-5Z" fill="#681f46" stroke="#681f46" stroke-width="1.51"/><path d="M1068,935L919,956L1081,1161Z" fill="#5b163b" stroke="#5b163b" stroke-width="1.51"/><path d="M1003,-174L1009,-102L1134,-176Z" fill="#692047" stroke="#692047" stroke-width="1.51"/><path d="M1067,578L999,635L1139,638Z" fill="#60193f" stroke="#60193f" stroke-width="1.51"/><path d="M1022,884L1068,935L1129,894Z" fill="#5c173c" stroke="#5c173c" stroke-width="1.51"/><path d="M935,436L999,444L1004,227Z" fill="#631c42" stroke="#631c42" stroke-width="1.51"/><path d="M999,635L924,860L1022,884Z" fill="#5e183d" stroke="#5e183d" stroke-width="1.51"/><path d="M867,1160L1035,1317L1081,1161Z" fill="#591539" stroke="#591539" stroke-width="1.51"/><path d="M919,956L867,1160L1081,1161Z" fill="#5b163b" stroke="#5b163b" stroke-width="1.51"/><path d="M884,523L999,635L1067,578Z" fill="#611a40" stroke="#611a40" stroke-width="1.51"/><path d="M999,444L884,523L1067,578Z" fill="#611b40" stroke="#611b40" stroke-width="1.51"/><path d="M1022,884L919,956L1068,935Z" fill="#5c173c" stroke="#5c173c" stroke-width="1.51"/><path d="M885,639L924,860L999,635Z" fill="#5f193f" stroke="#5f193f" stroke-width="1.51"/><path d="M980,48L870,83L1004,227Z" fill="#671f45" stroke="#671f45" stroke-width="1.51"/><path d="M870,238L935,436L1004,227Z" fill="#651d43" stroke="#651d43" stroke-width="1.51"/><path d="M914,-50L980,48L1009,-102Z" fill="#692046" stroke="#692046" stroke-width="1.51"/><path d="M867,1160L837,1296L1035,1317Z" fill="#591539" stroke="#591539" stroke-width="1.51"/><path d="M935,436L884,523L999,444Z" fill="#631b41" stroke="#631b41" stroke-width="1.51"/><path d="M870,83L870,238L1004,227Z" fill="#661e44" stroke="#661e44" stroke-width="1.51"/><path d="M924,860L919,956L1022,884Z" fill="#5d183d" stroke="#5d183d" stroke-width="1.51"/><path d="M884,523L885,639L999,635Z" fill="#611a40" stroke="#611a40" stroke-width="1.51"/><path d="M1003,-174L914,-50L1009,-102Z" fill="#692047" stroke="#692047" stroke-width="1.51"/><path d="M844,-265L914,-50L1003,-174Z" fill="#6b2148" stroke="#6b2148" stroke-width="1.51"/><path d="M844,-265L763,-178L914,-50Z" fill="#6c2149" stroke="#6c2149" stroke-width="1.51"/><path d="M885,639L789,849L924,860Z" fill="#5f193e" stroke="#5f193e" stroke-width="1.51"/><path d="M914,-50L870,83L980,48Z" fill="#682046" stroke="#682046" stroke-width="1.51"/><path d="M708,1261L627,1279L837,1296Z" fill="#5a163a" stroke="#5a163a" stroke-width="1.51"/><path d="M779,646L789,849L885,639Z" fill="#601a40" stroke="#601a40" stroke-width="1.51"/><path d="M759,986L867,1160L919,956Z" fill="#5c173c" stroke="#5c173c" stroke-width="1.51"/><path d="M789,849L919,956L924,860Z" fill="#5e193d" stroke="#5e193d" stroke-width="1.51"/><path d="M739,382L884,523L935,436Z" fill="#641c42" stroke="#641c42" stroke-width="1.51"/><path d="M870,238L739,382L935,436Z" fill="#651d43" stroke="#651d43" stroke-width="1.51"/><path d="M709,-68L870,83L914,-50Z" fill="#6a2048" stroke="#6a2048" stroke-width="1.51"/><path d="M763,-178L709,-68L914,-50Z" fill="#6b2149" stroke="#6b2149" stroke-width="1.51"/><path d="M789,849L759,986L919,956Z" fill="#5e183d" stroke="#5e183d" stroke-width="1.51"/><path d="M759,986L733,1134L867,1160Z" fill="#5c173c" stroke="#5c173c" stroke-width="1.51"/><path d="M709,-68L727,72L870,83Z" fill="#6a2147" stroke="#6a2147" stroke-width="1.51"/><path d="M715,268L739,382L870,238Z" fill="#661e44" stroke="#661e44" stroke-width="1.51"/><path d="M870,83L727,72L870,238Z" fill="#681f46" stroke="#681f46" stroke-width="1.51"/><path d="M727,72L715,268L870,238Z" fill="#681f45" stroke="#681f45" stroke-width="1.51"/><path d="M739,382L756,583L884,523Z" fill="#641c42" stroke="#641c42" stroke-width="1.51"/><path d="M884,523L756,583L885,639Z" fill="#621b41" stroke="#621b41" stroke-width="1.51"/><path d="M756,583L779,646L885,639Z" fill="#621b41" stroke="#621b41" stroke-width="1.51"/><path d="M708,1261L837,1296L867,1160Z" fill="#5a163a" stroke="#5a163a" stroke-width="1.51"/><path d="M733,1134L708,1261L867,1160Z" fill="#5b163b" stroke="#5b163b" stroke-width="1.51"/><path d="M779,646L621,710L789,849Z" fill="#611a40" stroke="#611a40" stroke-width="1.51"/><path d="M559,-209L763,-178L844,-265Z" fill="#6d234a" stroke="#6d234a" stroke-width="1.51"/><path d="M131,-244L298,-195L423,-198Z" fill="#71254e" stroke="#71254e" stroke-width="1.51"/><path d="M739,382L549,518L756,583Z" fill="#651d43" stroke="#651d43" stroke-width="1.51"/><path d="M621,710L634,857L789,849Z" fill="#611a40" stroke="#611a40" stroke-width="1.51"/><path d="M634,857L759,986L789,849Z" fill="#5f193e" stroke="#5f193e" stroke-width="1.51"/><path d="M609,1032L733,1134L759,986Z" fill="#5d183d" stroke="#5d183d" stroke-width="1.51"/><path d="M756,583L621,710L779,646Z" fill="#621c41" stroke="#621c41" stroke-width="1.51"/><path d="M534,126L715,268L727,72Z" fill="#691f47" stroke="#691f47" stroke-width="1.51"/><path d="M545,400L549,518L739,382Z" fill="#661e44" stroke="#661e44" stroke-width="1.51"/><path d="M634,857L609,1032L759,986Z" fill="#5f193e" stroke="#5f193e" stroke-width="1.51"/><path d="M559,-209L709,-68L763,-178Z" fill="#6d224a" stroke="#6d224a" stroke-width="1.51"/><path d="M709,-68L595,-15L727,72Z" fill="#6b2149" stroke="#6b2149" stroke-width="1.51"/><path d="M549,518L621,710L756,583Z" fill="#631c42" stroke="#631c42" stroke-width="1.51"/><path d="M534,126L569,294L715,268Z" fill="#691f46" stroke="#691f46" stroke-width="1.51"/><path d="M589,1143L708,1261L733,1134Z" fill="#5c173c" stroke="#5c173c" stroke-width="1.51"/><path d="M609,1032L589,1143L733,1134Z" fill="#5d183c" stroke="#5d183c" stroke-width="1.51"/><path d="M715,268L569,294L739,382Z" fill="#671f45" stroke="#671f45" stroke-width="1.51"/><path d="M569,294L545,400L739,382Z" fill="#671e45" stroke="#671e45" stroke-width="1.51"/><path d="M589,1143L627,1279L708,1261Z" fill="#5b173b" stroke="#5b173b" stroke-width="1.51"/><path d="M595,-15L534,126L727,72Z" fill="#6b2148" stroke="#6b2148" stroke-width="1.51"/><path d="M559,-209L595,-15L709,-68Z" fill="#6d224a" stroke="#6d224a" stroke-width="1.51"/><path d="M455,1172L438,1235L589,1143Z" fill="#5d183d" stroke="#5d183d" stroke-width="1.51"/><path d="M559,-209L440,-64L595,-15Z" fill="#6d234b" stroke="#6d234b" stroke-width="1.51"/><path d="M549,518L466,727L621,710Z" fill="#641d42" stroke="#641d42" stroke-width="1.51"/><path d="M438,1235L334,1298L627,1279Z" fill="#5c183c" stroke="#5c183c" stroke-width="1.51"/><path d="M589,1143L438,1235L627,1279Z" fill="#5d183c" stroke="#5d183c" stroke-width="1.51"/><path d="M423,951L609,1032L634,857Z" fill="#60193f" stroke="#60193f" stroke-width="1.51"/><path d="M426,862L423,951L634,857Z" fill="#611b40" stroke="#611b40" stroke-width="1.51"/><path d="M621,710L466,727L634,857Z" fill="#621b41" stroke="#621b41" stroke-width="1.51"/><path d="M466,727L426,862L634,857Z" fill="#621b41" stroke="#621b41" stroke-width="1.51"/><path d="M534,126L466,143L569,294Z" fill="#6a2047" stroke="#6a2047" stroke-width="1.51"/><path d="M455,1172L589,1143L609,1032Z" fill="#5e193d" stroke="#5e193d" stroke-width="1.51"/><path d="M423,951L455,1172L609,1032Z" fill="#5f193f" stroke="#5f193f" stroke-width="1.51"/><path d="M414,527L466,727L549,518Z" fill="#651d43" stroke="#651d43" stroke-width="1.51"/><path d="M466,143L410,244L569,294Z" fill="#6a2047" stroke="#6a2047" stroke-width="1.51"/><path d="M440,-64L534,126L595,-15Z" fill="#6c2249" stroke="#6c2249" stroke-width="1.51"/><path d="M423,-198L440,-64L559,-209Z" fill="#6f244c" stroke="#6f244c" stroke-width="1.51"/><path d="M440,-64L466,143L534,126Z" fill="#6c2249" stroke="#6c2249" stroke-width="1.51"/><path d="M385,365L545,400L569,294Z" fill="#681f46" stroke="#681f46" stroke-width="1.51"/><path d="M410,244L385,365L569,294Z" fill="#692047" stroke="#692047" stroke-width="1.51"/><path d="M545,400L414,527L549,518Z" fill="#661e45" stroke="#661e45" stroke-width="1.51"/><path d="M385,365L414,527L545,400Z" fill="#671f45" stroke="#671f45" stroke-width="1.51"/><path d="M423,-198L302,-114L440,-64Z" fill="#6f244c" stroke="#6f244c" stroke-width="1.51"/><path d="M423,951L272,1112L455,1172Z" fill="#601a3f" stroke="#601a3f" stroke-width="1.51"/><path d="M414,527L311,642L466,727Z" fill="#651d44" stroke="#651d44" stroke-width="1.51"/><path d="M258,854L426,862L466,727Z" fill="#631c42" stroke="#631c42" stroke-width="1.51"/><path d="M311,642L258,854L466,727Z" fill="#651d43" stroke="#651d43" stroke-width="1.51"/><path d="M327,226L410,244L466,143Z" fill="#6b2048" stroke="#6b2048" stroke-width="1.51"/><path d="M282,69L327,226L466,143Z" fill="#6c2249" stroke="#6c2249" stroke-width="1.51"/><path d="M440,-64L282,69L466,143Z" fill="#6d224a" stroke="#6d224a" stroke-width="1.51"/><path d="M263,958L272,1112L423,951Z" fill="#611a40" stroke="#611a40" stroke-width="1.51"/><path d="M272,1112L438,1235L455,1172Z" fill="#5f193e" stroke="#5f193e" stroke-width="1.51"/><path d="M385,365L270,428L414,527Z" fill="#681f46" stroke="#681f46" stroke-width="1.51"/><path d="M270,428L282,507L414,527Z" fill="#681f46" stroke="#681f46" stroke-width="1.51"/><path d="M272,1112L334,1298L438,1235Z" fill="#5e193e" stroke="#5e193e" stroke-width="1.51"/><path d="M302,-114L282,69L440,-64Z" fill="#6f244b" stroke="#6f244b" stroke-width="1.51"/><path d="M327,226L385,365L410,244Z" fill="#6a2147" stroke="#6a2147" stroke-width="1.51"/><path d="M298,-195L302,-114L423,-198Z" fill="#70254d" stroke="#70254d" stroke-width="1.51"/><path d="M263,958L423,951L426,862Z" fill="#621b41" stroke="#621b41" stroke-width="1.51"/><path d="M258,854L263,958L426,862Z" fill="#631c41" stroke="#631c41" stroke-width="1.51"/><path d="M282,507L311,642L414,527Z" fill="#671e45" stroke="#671e45" stroke-width="1.51"/><path d="M327,226L270,428L385,365Z" fill="#6a2047" stroke="#6a2047" stroke-width="1.51"/><path d="M143,200L109,399L270,428Z" fill="#6b2149" stroke="#6b2149" stroke-width="1.51"/><path d="M152,44L282,69L302,-114Z" fill="#6f234c" stroke="#6f234c" stroke-width="1.51"/><path d="M149,713L258,854L311,642Z" fill="#651d44" stroke="#651d44" stroke-width="1.51"/><path d="M282,69L143,200L327,226Z" fill="#6c224a" stroke="#6c224a" stroke-width="1.51"/><path d="M143,200L270,428L327,226Z" fill="#6b2148" stroke="#6b2148" stroke-width="1.51"/><path d="M272,1112L169,1130L334,1298Z" fill="#60193f" stroke="#60193f" stroke-width="1.51"/><path d="M169,1130L112,1317L334,1298Z" fill="#5f193e" stroke="#5f193e" stroke-width="1.51"/><path d="M85,-63L152,44L302,-114Z" fill="#70244d" stroke="#70244d" stroke-width="1.51"/><path d="M282,507L111,546L311,642Z" fill="#671f46" stroke="#671f46" stroke-width="1.51"/><path d="M111,546L149,713L311,642Z" fill="#671f45" stroke="#671f45" stroke-width="1.51"/><path d="M144,959L169,1130L263,958Z" fill="#621b41" stroke="#621b41" stroke-width="1.51"/><path d="M263,958L169,1130L272,1112Z" fill="#611a40" stroke="#611a40" stroke-width="1.51"/><path d="M298,-195L131,-244L302,-114Z" fill="#71254e" stroke="#71254e" stroke-width="1.51"/><path d="M131,-244L85,-63L302,-114Z" fill="#71254e" stroke="#71254e" stroke-width="1.51"/><path d="M152,44L143,200L282,69Z" fill="#6e234b" stroke="#6e234b" stroke-width="1.51"/><path d="M270,428L111,546L282,507Z" fill="#691f47" stroke="#691f47" stroke-width="1.51"/><path d="M149,713L103,833L258,854Z" fill="#651d44" stroke="#651d44" stroke-width="1.51"/><path d="M258,854L144,959L263,958Z" fill="#631c42" stroke="#631c42" stroke-width="1.51"/><path d="M109,399L111,546L270,428Z" fill="#6a2047" stroke="#6a2047" stroke-width="1.51"/><path d="M103,833L144,959L258,854Z" fill="#641d43" stroke="#641d43" stroke-width="1.51"/><path d="M-51,221L109,399L143,200Z" fill="#6c224a" stroke="#6c224a" stroke-width="1.51"/><path d="M41,987L36,1097L144,959Z" fill="#631c42" stroke="#631c42" stroke-width="1.51"/><path d="M111,546L14,664L149,713Z" fill="#681f46" stroke="#681f46" stroke-width="1.51"/><path d="M20,41L143,200L152,44Z" fill="#6f244c" stroke="#6f244c" stroke-width="1.51"/><path d="M-30,1234L112,1317L169,1130Z" fill="#601a40" stroke="#601a40" stroke-width="1.51"/><path d="M36,1097L-30,1234L169,1130Z" fill="#621b40" stroke="#621b40" stroke-width="1.51"/><path d="M144,959L36,1097L169,1130Z" fill="#631c41" stroke="#631c41" stroke-width="1.51"/><path d="M-51,221L40,419L109,399Z" fill="#6c224a" stroke="#6c224a" stroke-width="1.51"/><path d="M109,399L40,419L111,546Z" fill="#6a2148" stroke="#6a2148" stroke-width="1.51"/><path d="M-30,-109L85,-63L131,-244Z" fill="#73264f" stroke="#73264f" stroke-width="1.51"/><path d="M20,41L-51,221L143,200Z" fill="#6f244c" stroke="#6f244c" stroke-width="1.51"/><path d="M103,833L41,987L144,959Z" fill="#641d43" stroke="#641d43" stroke-width="1.51"/><path d="M14,664L103,833L149,713Z" fill="#671e45" stroke="#671e45" stroke-width="1.51"/><path d="M85,-63L20,41L152,44Z" fill="#70244d" stroke="#70244d" stroke-width="1.51"/><path d="M-60,-215L-30,-109L131,-244Z" fill="#732650" stroke="#732650" stroke-width="1.51"/><path d="M-27,854L41,987L103,833Z" fill="#651e44" stroke="#651e44" stroke-width="1.51"/><path d="M14,664L-27,854L103,833Z" fill="#661e45" stroke="#661e45" stroke-width="1.51"/><path d="M40,419L-44,518L111,546Z" fill="#6a2148" stroke="#6a2148" stroke-width="1.51"/><path d="M-44,518L14,664L111,546Z" fill="#692047" stroke="#692047" stroke-width="1.51"/><path d="M-30,1234L-173,1342L112,1317Z" fill="#611a40" stroke="#611a40" stroke-width="1.51"/><path d="M-30,-109L20,41L85,-63Z" fill="#71264e" stroke="#71264e" stroke-width="1.51"/><path d="M-170,717L-27,854L14,664Z" fill="#681f46" stroke="#681f46" stroke-width="1.51"/><path d="M-140,62L-51,221L20,41Z" fill="#70254d" stroke="#70254d" stroke-width="1.51"/><path d="M-137,1164L-30,1234L36,1097Z" fill="#621c41" stroke="#621c41" stroke-width="1.51"/><path d="M-51,221L-161,368L40,419Z" fill="#6d224a" stroke="#6d224a" stroke-width="1.51"/><path d="M-27,854L-211,944L41,987Z" fill="#661e44" stroke="#661e44" stroke-width="1.51"/><path d="M-137,1164L36,1097L41,987Z" fill="#631c42" stroke="#631c42" stroke-width="1.51"/><path d="M-211,944L-137,1164L41,987Z" fill="#651d43" stroke="#651d43" stroke-width="1.51"/><path d="M-161,368L-44,518L40,419Z" fill="#6c2249" stroke="#6c2249" stroke-width="1.51"/><path d="M-170,717L-148,834L-27,854Z" fill="#681f46" stroke="#681f46" stroke-width="1.51"/><path d="M-44,518L-126,548L14,664Z" fill="#6a2148" stroke="#6a2148" stroke-width="1.51"/><path d="M-30,-109L-140,62L20,41Z" fill="#72264e" stroke="#72264e" stroke-width="1.51"/><path d="M-126,548L-170,717L14,664Z" fill="#692047" stroke="#692047" stroke-width="1.51"/><path d="M-140,62L-172,207L-51,221Z" fill="#70244d" stroke="#70244d" stroke-width="1.51"/><path d="M-172,207L-161,368L-51,221Z" fill="#6f244c" stroke="#6f244c" stroke-width="1.51"/><path d="M-161,368L-126,548L-44,518Z" fill="#6c2149" stroke="#6c2149" stroke-width="1.51"/><path d="M-202,-11L-140,62L-30,-109Z" fill="#72264f" stroke="#72264f" stroke-width="1.51"/><path d="M-60,-215L-218,-187L-30,-109Z" fill="#742750" stroke="#742750" stroke-width="1.51"/><path d="M-137,1164L-173,1342L-30,1234Z" fill="#621b41" stroke="#621b41" stroke-width="1.51"/><path d="M-148,834L-211,944L-27,854Z" fill="#671f45" stroke="#671f45" stroke-width="1.51"/><path d="M-218,-187L-202,-11L-30,-109Z" fill="#732750" stroke="#732750" stroke-width="1.51"/><path d="M-161,368L-170,717L-126,548Z" fill="#6b2149" stroke="#6b2149" stroke-width="1.51"/><path d="M-202,-11L-172,207L-140,62Z" fill="#71254e" stroke="#71254e" stroke-width="1.51"/><path d="M-211,944L-173,1342L-137,1164Z" fill="#641c42" stroke="#641c42" stroke-width="1.51"/><path d="M-170,717L-211,944L-148,834Z" fill="#681f46" stroke="#681f46" stroke-width="1.51"/><path d="M-202,-11L-211,944L-172,207Z" fill="#6e224b" stroke="#6e224b" stroke-width="1.51"/><path d="M-211,944L-170,717L-161,368Z" fill="#6a2048" stroke="#6a2048" stroke-width="1.51"/><path d="M-172,207L-211,944L-161,368Z" fill="#6c2149" stroke="#6c2149" stroke-width="1.51"/><path d="M-218,-187L-211,944L-202,-11Z" fill="#6f244d" stroke="#6f244d" stroke-width="1.51"/></svg>